<svg xmlns="http://www.w3.org/2000/svg" xmlns:xlink="http://www.w3.org/1999/xlink" viewBox="0 0 24 30" version="1.1" x="0px" y="0px"><title>34 -Magic Rune- (Solid)</title><desc>Created with Sketch.</desc><g stroke="none" stroke-width="1" fill="none" fill-rule="evenodd"><g fill="#000000"><path d="M6.6497,7.2346 C6.8447,7.2246 7.0437,7.2276 7.2467,7.2466 C7.2257,7.0266 7.2197,6.8106 7.2317,6.6026 C7.4057,3.6166 9.1937,1.3186 10.3537,0.1266 C5.0517,0.8596 0.8537,5.0606 0.1247,10.3636 C1.3217,9.1976 3.6397,7.3926 6.6497,7.2346"/><path d="M17.2407,14.6027 C19.6247,14.4777 21.5327,12.9147 22.4577,11.9957 C21.5387,11.0827 19.6477,9.5317 17.2837,9.3907 C17.0977,9.3817 16.8987,9.3987 16.6677,9.4497 C16.4647,9.4927 16.1727,9.5697 15.8647,9.6667 L14.9327,10.5997 C14.7207,10.8107 14.4437,10.9167 14.1667,10.9167 C13.8887,10.9167 13.6117,10.8107 13.4007,10.5997 C12.9777,10.1767 12.9777,9.4907 13.4007,9.0677 L14.3257,8.1417 C14.4127,7.8837 14.4967,7.6197 14.5557,7.3337 C14.5977,7.1237 14.6157,6.9277 14.6067,6.7547 C14.4777,4.3577 12.9187,2.4617 12.0017,1.5447 C11.0887,2.4627 9.5337,4.3577 9.3937,6.7267 C9.3847,6.9057 9.4037,7.1107 9.4507,7.3327 C9.4937,7.5357 9.5697,7.8277 9.6677,8.1357 L10.5987,9.0677 C11.0217,9.4907 11.0217,10.1767 10.5987,10.5997 C10.3877,10.8107 10.1097,10.9167 9.8327,10.9167 C9.5557,10.9167 9.2787,10.8107 9.0667,10.5997 L8.1307,9.6637 C7.8217,9.5607 7.5337,9.4857 7.3387,9.4477 C7.1307,9.4047 6.9377,9.3867 6.7647,9.3977 C4.3827,9.5237 2.4747,11.0857 1.5507,12.0047 C2.4447,12.8937 4.2597,14.3867 6.5347,14.5957 C6.8237,14.6237 7.1157,14.6017 7.4067,14.5357 C7.6117,14.4897 7.8667,14.4197 8.1327,14.3347 L9.0667,13.4007 C9.4907,12.9777 10.1757,12.9777 10.5987,13.4007 C11.0217,13.8237 11.0217,14.5097 10.5987,14.9327 L9.6737,15.8577 C9.5877,16.1167 9.5047,16.3807 9.4487,16.6647 C9.4087,16.8687 9.3927,17.0577 9.4027,17.2277 C9.5237,19.6167 11.0887,21.5277 12.0087,22.4537 C12.9207,21.5367 14.4687,19.6487 14.6127,17.2897 C14.6247,17.1037 14.6047,16.8987 14.5527,16.6607 C14.4877,16.3717 14.4067,16.1107 14.3237,15.8567 L13.4007,14.9327 C12.9777,14.5097 12.9777,13.8237 13.4007,13.4007 C13.8237,12.9777 14.5087,12.9777 14.9327,13.4007 L15.8687,14.3367 C16.1807,14.4397 16.4717,14.5147 16.6687,14.5537 C16.8777,14.5957 17.0667,14.6097 17.2407,14.6027"/><path d="M16.77,6.6363 C16.781,6.8313 16.776,7.0343 16.756,7.2433 C16.982,7.2213 17.2,7.2163 17.412,7.2283 C20.389,7.4053 22.68,9.1853 23.872,10.3443 C23.136,5.0493 18.942,0.8583 13.646,0.1263 C14.811,1.3233 16.608,3.6343 16.77,6.6363"/><path d="M7.2379,17.3406 C7.2279,17.1506 7.2329,16.9526 7.2509,16.7506 C6.9449,16.7796 6.6389,16.7806 6.3379,16.7526 C3.4789,16.4906 1.2809,14.7706 0.1269,13.6456 C0.8589,18.9486 5.0599,23.1476 10.3649,23.8756 C9.1969,22.6766 7.3919,20.3546 7.2379,17.3406"/><path d="M17.3539,16.7661 C17.1669,16.7771 16.9649,16.7721 16.7589,16.7531 C16.7839,16.9831 16.7889,17.2051 16.7749,17.4211 C16.5939,20.3941 14.8139,22.6831 13.6569,23.8721 C18.9509,23.1361 23.1429,18.9411 23.8739,13.6451 C22.6739,14.8121 20.3589,16.6091 17.3539,16.7661"/></g></g><text x="0" y="39" fill="#000000" font-size="5px" font-weight="bold" font-family="'Helvetica Neue', Helvetica, Arial-Unicode, Arial, Sans-serif">Created by Smashicons</text><text x="0" y="44" fill="#000000" font-size="5px" font-weight="bold" font-family="'Helvetica Neue', Helvetica, Arial-Unicode, Arial, Sans-serif">from the Noun Project</text></svg>