<svg xmlns="http://www.w3.org/2000/svg" xmlns:xlink="http://www.w3.org/1999/xlink" version="1.1" x="0px" y="0px" viewBox="0 0 100 125" style="enable-background:new 0 0 100 100;" xml:space="preserve"><path d="M72.33,15.01c1.32-0.87,1.66-2.61,0.76-3.88c-0.91-1.27-2.71-1.6-4.04-0.73L32.21,34.65v-21.8c0-1.54-1.3-2.79-2.9-2.79  s-2.9,1.25-2.9,2.79v27.11c0,0,0,0.01,0,0.01v47.33c0,1.54,1.3,2.79,2.9,2.79s2.9-1.25,2.9-2.79V61.93l40.13-26.67  c1.32-0.88,1.65-2.62,0.74-3.89c-0.91-1.27-2.72-1.59-4.04-0.71L32.21,55.14V41.42L72.33,15.01z"/></svg>