<svg xmlns="http://www.w3.org/2000/svg" xmlns:xlink="http://www.w3.org/1999/xlink" version="1.1" x="0px" y="0px" viewBox="0 0 100 125" style="enable-background:new 0 0 100 100;" xml:space="preserve"><path d="M49.99,90.02c0.78,0,1.56-0.3,2.13-0.9c1.09-1.13,1.02-2.9-0.16-3.95L24.97,61.18l26.79-23.71  c1.18-1.04,1.26-2.81,0.17-3.95c-1.09-1.14-2.92-1.21-4.1-0.16l-29.1,25.76c-0.6,0.53-0.94,1.27-0.94,2.05  c0,0.78,0.34,1.53,0.93,2.05l29.31,26.05C48.58,89.77,49.28,90.02,49.99,90.02z"/><path d="M52.18,10.72c-1.18-1.04-3.02-0.97-4.1,0.16c-1.09,1.14-1.01,2.9,0.17,3.95l26.79,23.71L48.04,62.53  c-1.18,1.05-1.25,2.81-0.16,3.95c0.57,0.6,1.35,0.9,2.13,0.9c0.7,0,1.41-0.25,1.97-0.74l29.31-26.05c0.6-0.53,0.93-1.27,0.93-2.05  c0-0.78-0.34-1.52-0.94-2.05L52.18,10.72z"/></svg>